# AST/ASF file generated using VICON BodyLanguage
# -----------------------------------------------
:version 1.10
:name VICON
:units
  mass 1.0
  length 0.45
  angle deg
:documentation
   .ast/.asf automatically generated from VICON data using
   VICON BodyBuilder and BodyLanguage model FoxedUp or BRILLIANT.MOD
:root
   order TX TY TZ RX RY RZ
   axis XYZ
   position 0 0 0  
   orientation 0 0 0 
:bonedata
  begin
     id 1 
     name lhipjoint
     direction 0.682418 -0.694059 0.22932 
     length 2.25561 
     axis 0 0 0  XYZ
  end
  begin
     id 2 
     name lfemur
     direction 0.34202 -0.939693 0  
     length 6.96448  
     axis 0 0 20  XYZ
    dof rx ry rz
    limits (-160.0 20.0)
           (-70.0 70.0)
           (-60.0 70.0)
  end
  begin
     id 3 
     name ltibia
     direction 0.34202 -0.939693 0   
     length 6.88553   
     axis 0 0 20   XYZ
    dof rx
    limits (-10.0 170.0)
  end
  begin
     id 4 
     name lfoot
     direction 0.0723587 -0.198804 0.977364   
     length 1.88518   
     axis -90 7.62852e-016 20   XYZ
    dof rx rz
    limits (-45.0 90.0)
           (-70.0 20.0)
  end
  begin
     id 5 
     name ltoes
     direction 1.53558e-011 -4.21962e-011 1   
     length 0.952124   
     axis -90 7.62852e-016 20   XYZ
    dof rx
    limits (-90.0 20.0)
  end
  begin
     id 6 
     name rhipjoint
     direction -0.657603 -0.71533 0.236348   
     length 2.18854  
     axis 0 0 0  XYZ 
  end
  begin
     id 7 
     name rfemur
     direction -0.34202 -0.939693 0   
     length 6.86686   
     axis 0 0 -20   XYZ
    dof rx ry rz
    limits (-160.0 20.0)
           (-70.0 70.0)
           (-70.0 60.0)
  end
  begin
     id 8 
     name rtibia
     direction -0.34202 -0.939693 0   
     length 6.59503   
     axis 0 0 -20   XYZ
    dof rx
    limits (-10.0 170.0)
 end
 begin
     id 9 
     name rfoot
     direction -0.101977 -0.280179 0.954516   
     length 1.93723  
     axis -90 -7.62852e-016 -20   XYZ
    dof rx rz
    limits (-45.0 90.0)
           (-20.0 70.0)
  end
  begin
     id 10 
     name rtoes
     direction -1.53564e-011 -4.21897e-011 1   
     length 0.970315   
     axis -90 -7.62852e-016 -20   XYZ
    dof rx
    limits (-90.0 20.0)
  end
  begin
     id 11 
     name lowerback
     direction -0.0339559 0.999421 -0.00235966   
     length 1.88543   
     axis 0 0 0   XYZ
    dof rx ry rz
    limits (-20.0 45.0)
           (-30.0 30.0)
           (-30.0 30.0)
  end
  begin
     id 12 
     name upperback
     direction 0.00401003 0.999739 0.0224689   
     length 1.8856   
     axis 0 0 0   XYZ
    dof rx ry rz
    limits (-20.0 45.0)
           (-30.0 30.0)
           (-30.0 30.0)
  end
  begin
     id 13 
     name thorax
     direction 0.0198619 0.999546 0.0226536   
     length 1.88352   
     axis 0 0 0   XYZ
    dof rx ry rz
    limits (-20.0 45.0)
           (-30.0 30.0)
           (-30.0 30.0)
  end
  begin
     id 14 
     name lowerneck
     direction -0.0461848 0.998632 0.0245198   
     length 1.34895   
     axis 0 0 0   XYZ
    dof rx ry rz
    limits (-20.0 45.0)
           (-30.0 30.0)
           (-30.0 30.0)
  end
  begin
     id 15 
     name upperneck
     direction -0.0180627 0.994724 -0.100984   
     length 1.35214   
     axis 0 0 0   XYZ
    dof rx ry rz
    limits (-20.0 45.0)
           (-30.0 30.0)
           (-30.0 30.0)
  end
  begin
     id 16
     name head
     direction -0.00374772 0.999293 -0.037403  
     length 1.3568  
     axis 0 0 0   XYZ
    dof rx ry rz
    limits (-20.0 45.0)
           (-30.0 30.0)
           (-30.0 30.0)
  end
  begin
     id 17 
     name lclavicle
     direction 0.971773 0.191119 0.138311  
     length 2.84954  
     axis 0 0 0   XYZ
    dof ry rz
    limits (-20.0 10.0)
           (0.0 20.0)
  end
  begin
     id 18 
     name lhumerus
     direction 1 -4.4897e-011 -2.43761e-027   
     length 4.40919   
     axis 180 -30 -90   XYZ
    dof rx ry rz
    limits (-60.0 90.0)
           (-90.0 90.0)
           (-90.0 90.0)
  end
  begin
     id 19
     name lradius
     direction 1 -4.4896e-011 -9.1621e-027   
     length 3.03857   
     axis 180 -30 -90   XYZ
    dof rx
    limits (-10.0 170.0)
  end
  begin
     id 20
     name lwrist
     direction 1 -4.4896e-011 -1.41363e-026   
     length 1.51928   
     axis 1.07133e-014 90 90   XYZ
    dof ry
    limits (-180.0 0.0)
 end
  begin
     id 21 
     name lhand
     direction 1 -4.48978e-011 -2.82725e-026   
     length 0.523208   
     axis 1.80403e-014 90 90   XYZ
    dof rx rz
    limits (-90.0 90.0)
           (-45.0 45.0)
  end
  begin
     id 22 
     name lfingers
     direction 1 -4.48977e-011 -5.6545e-026   
     length 0.421824   
     axis 3.60806e-014 90 90   XYZ
    dof rx
    limits (0.0 90.0)
  end
  begin
     id 23
     name lthumb
     direction 0.707107 -6.34962e-011 0.707107   
     length 0.605657   
     axis -90 45 2.85299e-015   XYZ
    dof rx rz
    limits (-45.0 45.0)
           (-45.0 45.0)
  end
  begin
     id 24 
     name rclavicle
     direction -0.957247 0.24311 0.156766   
     length 3.12406  
     axis 0 0 0   XYZ 
    dof ry rz
    limits (-10.0 20.0)
           (-20.0 0.0)
  end
  begin
     id 25 
     name rhumerus
     direction -1 -4.48964e-011 -1.70632e-027  
     length 4.61969   
     axis 180 30 90   XYZ
    dof rx ry rz
    limits (-90.0 60.0)
           (-90.0 90.0)
           (-90.0 90.0)
  end
  begin
     id 26 
     name rradius
     direction -1 -4.48966e-011 -6.60395e-027   
     length 3.09382   
     axis 180 30 90   XYZ
    dof rx
    limits (-10.0 170.0)
  end
  begin
     id 27 
     name rwrist
     direction -1 -4.48963e-011 -1.41363e-026   
     length 1.54691   
     axis 1.07133e-014 -90 -90   XYZ
    dof ry
    limits (-180.0 0.0)
  end
  begin
     id 28
     name rhand
     direction -1 -4.49013e-011 -2.82725e-026   
     length 0.500896   
     axis 1.80403e-014 -90 -90   XYZ
    dof rx rz
    limits (-90.0 90.0)
           (-45.0 45.0)
  end
  begin
     id 29
     name rfingers
     direction -1 -4.48902e-011 -5.6545e-026   
     length 0.403835   
     axis 3.60806e-014 -90 -90   XYZ
    dof rx
    limits (0.0 90.0)
  end
  begin
     id 30
     name rthumb
     direction -0.707107 -6.34953e-011 0.707107   
     length 0.579829   
     axis -90 -45 -2.85299e-015   XYZ
    dof rx rz
    limits (-45.0 45.0)
           (-45.0 45.0)
  end
:hierarchy
  begin
    root lhipjoint rhipjoint lowerback
    lhipjoint lfemur
    lfemur ltibia
    ltibia lfoot
    lfoot ltoes
    rhipjoint rfemur
    rfemur rtibia
    rtibia rfoot
    rfoot rtoes
    lowerback upperback
    upperback thorax
    thorax lowerneck lclavicle rclavicle
    lowerneck upperneck
    upperneck head
    lclavicle lhumerus
    lhumerus lradius
    lradius lwrist
    lwrist lhand lthumb
    lhand lfingers
    rclavicle rhumerus
    rhumerus rradius
    rradius rwrist
    rwrist rhand rthumb
    rhand rfingers
  end

#!OML:ASF E:\madness\Project 1\Capture day 1\Session 1\Female1.ASF
:FULLY-SPECIFIED
:DEGREES
785
root 21.9733 15.215 -0.396232 332.674 -87.8353 -306.601
lowerback 30.1827 0.98423 1.10035
upperback 11.0824 0.649275 2.69279
thorax -4.08459 -0.149323 2.16632
lowerneck -8.01752 2.97829 1.60717
upperneck 6.659 4.67087 -11.2025
head 3.61554 1.80568 -3.41948
rclavicle -1.66979e-014 -2.18663e-014
rhumerus -39.244 -10.0875 -54.4118
rradius 109.432
rwrist -11.7826
rhand -24.5651 -40.8839
rfingers 7.12502
rthumb 1.93157 -70.8549
lclavicle -1.66979e-014 -2.18663e-014
lhumerus -53.3602 11.763 66.3319
lradius 94.4737
lwrist -15.432
lhand -56.5686 -28.2429
lfingers 7.12502
lthumb -28.8795 -0.458502
rfemur -47.9984 -4.12103 19.125
rtibia 52.1655
rfoot -26.5452 -22.7848
rtoes 3.00823
lfemur -57.9664 -7.94165 -18.6264
ltibia 69.9382
lfoot -12.2276 0.901908
ltoes -11.2197
786
root 21.9662 15.2016 -0.442386 349.602 -87.3567 -323.46
lowerback 29.8252 1.03227 1.11051
upperback 10.9696 0.740847 2.68323
thorax -4.05231 -0.0912643 2.11736
lowerneck -7.68034 2.87715 1.76189
upperneck 6.6086 4.50415 -11.1642
head 3.53452 1.74198 -3.44674
rclavicle 0 -9.54166e-015
rhumerus -39.5362 -10.2942 -53.9423
rradius 109.292
rwrist -12.1306
rhand -24.4736 -41.041
rfingers 7.12502
rthumb 2.01994 -71.0112
lclavicle 0 -9.54166e-015
lhumerus -53.088 11.7939 66.3115
lradius 94.0522
lwrist -15.5408
lhand -56.5319 -31.7685
lfingers 7.12502
lthumb -28.8444 -3.9781
rfemur -48.1202 -4.52809 19.714
rtibia 52.4967
rfoot -26.7009 -22.7839
rtoes 3.04501
lfemur -56.8157 -7.87459 -18.6141
ltibia 68.138
lfoot -13.0038 2.57085
ltoes -8.91867
787
root 21.9526 15.1932 -0.490195 360.699 -86.3459 -334.754
lowerback 29.7538 0.6405 0.605453
upperback 10.8358 0.17135 3.07022
thorax -4.15609 -0.374284 3.02165
lowerneck -7.08158 3.21608 0.547718
upperneck 6.38585 5.03291 -11.0324
head 3.37199 2.00196 -3.18379
rclavicle 1.51076e-014 1.59028e-015
rhumerus -38.8106 -9.03121 -53.474
rradius 109.196
rwrist -12.593
rhand -24.2165 -40.9436
rfingers 7.12502
rthumb 2.26827 -70.9113
lclavicle 1.51076e-014 1.59028e-015
lhumerus -53.9602 13.2234 66.2791
lradius 93.766
lwrist -15.8265
lhand -56.2969 -31.4843
lfingers 7.12502
lthumb -28.62 -3.65579
rfemur -47.829 -5.21119 20.2574
rtibia 52.8733
rfoot -27.1154 -22.8063
rtoes 3.0414
lfemur -55.3548 -8.13465 -18.5752
ltibia 66.384
lfoot -14.2451 4.64653
ltoes -8.22925
788
root 21.9582 15.1674 -0.535198 366.713 -85.1166 -340.414
lowerback 29.1626 0.408085 0.613062
upperback 10.6673 -0.0686098 3.17381
thorax -4.06181 -0.4721 3.19847
lowerneck -7.21693 3.20525 0.415322
upperneck 6.476 5.0331 -10.8786
head 3.41437 1.9979 -3.11319
rclavicle -1.82882e-014 -5.64548e-014
rhumerus -38.7009 -8.98685 -53.2302
rradius 109.038
rwrist -12.8496
rhand -24.4721 -41.0163
rfingers 7.12502
rthumb 2.0214 -70.9865
lclavicle -1.82882e-014 -5.64548e-014
lhumerus -53.9119 13.4825 66.3221
lradius 93.5061
lwrist -15.3498
lhand -56.1697 -31.647
lfingers 7.12502
lthumb -28.4984 -3.79805
rfemur -48.2854 -5.97978 20.7671
rtibia 53.2417
rfoot -27.3791 -22.8202
rtoes 2.90008
lfemur -54.764 -8.47232 -18.4562
ltibia 64.8107
lfoot -15.3776 6.47889
ltoes -9.30412
789
root 21.9645 15.1431 -0.574659 370.448 -84.1121 -343.75
lowerback 28.4764 0.458597 0.911032
upperback 10.5356 0.0965425 3.006
thorax -3.89985 -0.363761 2.77654
lowerneck -7.41952 2.82575 1.17591
upperneck 6.56896 4.4548 -10.7717
head 3.45381 1.72914 -3.23542
rclavicle 6.36111e-015 5.96354e-015
rhumerus -39.2229 -9.79463 -52.9497
rradius 108.966
rwrist -13.0968
rhand -24.822 -40.9023
rfingers 7.12502
rthumb 1.68352 -70.8754
lclavicle 6.36111e-015 5.96354e-015
lhumerus -53.3037 12.6902 66.3952
lradius 93.3623
lwrist -14.5273
lhand -56.0958 -33.9111
lfingers 7.12502
lthumb -28.4277 -6.05034
rfemur -48.8708 -6.53108 21.213
rtibia 53.63
rfoot -27.4142 -22.898
rtoes 2.11313
lfemur -54.3343 -8.67775 -18.3126
ltibia 63.4373
lfoot -16.4518 7.96874
ltoes -9.41348
790
root 21.9314 15.1654 -0.609845 372.773 -83.5966 -347.118
lowerback 29.2137 0.856108 1.3579
upperback 10.8091 0.659403 2.6514
thorax -3.94632 -0.0912286 1.95959
lowerneck -7.93228 2.33341 2.19318
upperneck 6.95292 3.7009 -10.3821
head 3.61517 1.37827 -3.3227
rclavicle 0 -1.51076e-014
rhumerus -40.0743 -11.2791 -52.6983
rradius 109.074
rwrist -13.1782
rhand -24.972 -40.1482
rfingers 7.12502
rthumb 1.53859 -70.1224
lclavicle 0 -1.51076e-014
lhumerus -52.0351 11.3638 66.482
lradius 92.935
lwrist -13.9109
lhand -55.8189 -32.0476
lfingers 7.12502
lthumb -28.1632 -4.14297
rfemur -47.5284 -6.63824 21.4496
rtibia 53.8728
rfoot -27.7856 -22.6875
rtoes 2.37995
lfemur -52.1016 -8.59539 -18.3213
ltibia 62.1457
lfoot -18.0887 8.8902
ltoes -6.37581
791
root 21.9351 15.1656 -0.647845 374.047 -82.5337 -348.432
lowerback 29.1776 0.634334 1.06828
upperback 10.6435 0.351772 2.81255
thorax -4.1119 -0.23663 2.40203
lowerneck -7.76613 2.3806 1.54105
upperneck 7.12366 3.80245 -9.82796
head 3.62238 1.43598 -3.04036
rclavicle -1.74931e-014 -8.74653e-015
rhumerus -39.7762 -10.7128 -52.192
rradius 109.125
rwrist -13.3483
rhand -24.3923 -39.1087
rfingers 7.12502
rthumb 2.09845 -69.0781
lclavicle -1.74931e-014 -8.74653e-015
lhumerus -52.1322 12.2245 66.8727
lradius 92.5812
lwrist -13.8049
lhand -55.8942 -30.685
lfingers 7.12502
lthumb -28.2352 -2.79224
rfemur -47.4912 -7.03913 21.6048
rtibia 54.2187
rfoot -28.0897 -22.3202
rtoes 3.68261
lfemur -51.5282 -8.97709 -18.15
ltibia 61.0643
lfoot -19.527 8.87216
ltoes -3.37872
